<?xml version="1.0" encoding="utf-8"?>
<!-- Generator: Adobe Illustrator 30.2.1, SVG Export Plug-In . SVG Version: 9.03 Build 0)  -->
<svg version="1.1" id="Layer_2_00000058582700361790737720000001121528613663009669_"
	 xmlns="http://www.w3.org/2000/svg" xmlns:xlink="http://www.w3.org/1999/xlink" x="0px" y="0px" viewBox="0 0 710.4 710.4"
	 style="enable-background:new 0 0 710.4 710.4;" xml:space="preserve">
<style type="text/css">
	.st0{clip-path:url(#XMLID_00000164502215528558405620000015244506924231418267_);fill:#364244;}
	.st1{fill:#AFBFC1;}
	.st2{fill:#364244;}
	.st3{fill:#FFFFFF;}
	.st4{fill:#FFBA4B;}
	.st5{opacity:0.2;enable-background:new    ;}
	.st6{fill:none;}
	.st7{fill:#5B6D71;}
	.st8{fill:#EDF0F0;}
</style>
<g>
	<g>
		<defs>
			<circle id="XMLID_00000000926509040920286440000002686435284367645081_" cx="355.2" cy="355.2" r="355.2"/>
		</defs>
		<use xlink:href="#XMLID_00000000926509040920286440000002686435284367645081_"  style="overflow:visible;fill:#5B6D71;"/>
		<clipPath id="XMLID_00000109738182130058844910000017141797342914472348_">
			<use xlink:href="#XMLID_00000000926509040920286440000002686435284367645081_"  style="overflow:visible;"/>
		</clipPath>
		<polygon style="clip-path:url(#XMLID_00000109738182130058844910000017141797342914472348_);fill:#364244;" points="236.1,563.4 
			389.7,766.2 692.4,683.6 744.4,545.6 807.1,396 802.4,334.9 544.2,215 409.1,361 		"/>
	</g>
	<g id="Layer_1-2">
		<g>
			<path class="st1" d="M574.9,281.6c0-48.4-39.3-87.7-87.7-87.7H297.7c-4.4-40.8-39-72.7-80.9-72.7c-44.9,0-81.4,36.5-81.4,81.4
				c0,29.4,23.9,53.3,53.3,53.3c1,0,1.9,0,2.9-0.1v35.8c0,6.1,1.1,12.4,3.2,18.2c-2.1,5.8-3.2,12.1-3.2,18.2s1.1,12.4,3.2,18.1
				c-2.1,5.8-3.2,12-3.2,18.1s1.1,12.4,3.2,18.2c-2.1,5.8-3.2,12-3.2,18.2c0,6.8,1.4,13.7,3.9,20c1.7,14,6.7,27.5,14.6,39.2
				c-1.7,6.7-2.5,13.7-2.5,20.6c0,13.7,3.4,27.4,9.7,39.6c1.7,17.9,9.7,34.6,22.6,47.3c14.3,14,33.2,21.7,53.2,21.7
				c20,0,40-8.3,54.4-22.9h96.9c14.3,14.5,33.9,22.8,54.3,22.8c42,0,76.2-34.2,76.2-76.2c0-36.2-25.4-66.6-59.2-74.3l44.6-44.5
				c9.5-9.4,14.7-22,14.7-35.4v-14.9c0-1.1,0-2.1-0.1-3.2L574.9,281.6L574.9,281.6z"/>
			<path class="st2" d="M564.9,281.6c0-42.8-34.9-77.7-77.7-77.7h-199v-1.3c0-39.4-32-71.4-71.4-71.4s-71.4,32-71.4,71.4
				c0,23.9,19.4,43.3,43.3,43.3c4.4,0,8.8-0.7,12.9-2v47.7c0,5.7,1.1,11.3,3.3,16.6v3.3c-2.2,5.2-3.3,10.9-3.3,16.6
				s1.1,11.3,3.3,16.6v3.2c-2.2,5.2-3.3,10.9-3.3,16.6s1.1,11.3,3.3,16.6v3.3c-2.2,5.2-3.3,10.9-3.3,16.6c0,6,1.3,12,3.7,17.5
				c1.4,14.4,7,28.3,15.8,39.8c-2.3,7.3-3.5,14.9-3.5,22.6c0,12.8,3.3,25.5,9.5,36.7c1.1,16.3,8,31.5,19.8,43
				c12.4,12.2,28.9,18.8,46.2,18.8c19.1,0,37.5-8.5,50-22.9h105.6c12.5,14.4,30.9,22.8,49.9,22.8c36.5,0,66.2-29.7,66.2-66.2
				s-29.7-66.2-66.2-66.2c-1.9,0-3.7,0.1-5.5,0.2l60-59.9c7.6-7.5,11.7-17.6,11.7-28.3v-14.9c0-1,0-1.9-0.1-2.8L564.9,281.6
				L564.9,281.6z"/>
			<path class="st3" d="M554.9,341.3c0.1,0.8,0.1,1.6,0.1,2.4v14.9c0,8-3.1,15.6-8.8,21.2l-89.7,89.6c-5.7,5.7-13.2,8.8-21.2,8.8
				h-97.9c0.4,0.5,0.7,0.9,1.1,1.4h114.9c10.5-14.3,27.4-23,45.4-23c31,0,56.2,25.2,56.2,56.2c0,31-25.2,56.2-56.2,56.2
				c-17.8,0-34.6-8.6-45.2-22.8H338.4c-10.5,14.3-27.4,22.9-45.2,22.9c-30.5,0-55.4-24.4-56.2-54.8c-6.2-10.3-9.4-21.9-9.4-33.8
				c0-8.4,1.7-16.8,4.8-24.6c-10-11.1-16.2-25.4-17.3-40.4c-2.3-4.6-3.5-9.7-3.5-14.8s1.1-10,3.3-14.4v-7.5
				c-2.2-4.5-3.3-9.4-3.3-14.4c0-5,1.1-10,3.3-14.4v-7.4c-2.2-4.5-3.3-9.4-3.3-14.4s1.1-9.9,3.3-14.4v-7.5
				c-2.2-4.5-3.3-9.4-3.3-14.5v-64.8c-6,5.7-14,9.1-22.9,9.1c-18.4,0-33.3-14.9-33.3-33.3c0-33.9,27.5-61.4,61.4-61.4
				s61.4,27.5,61.4,61.4v11.4c1.5-0.1,2.9-0.2,4.4-0.2h204.6c37.3,0,67.7,30.4,67.7,67.7V341.3L554.9,341.3z"/>
			<g>
				<g>
					<path class="st4" d="M319.3,513c0,14.5-11.7,26.2-26.2,26.2s-26.2-11.7-26.2-26.2c0-3.8,0.8-7.4,2.3-10.7
						c4.1-9.2,13.3-15.6,24-15.6C307.6,486.6,319.3,498.4,319.3,513L319.3,513z M304.6,513c0-6.4-5.1-11.5-11.5-11.5
						c-6.4,0-11.5,5.2-11.5,11.5s5.1,11.5,11.5,11.5C299.5,524.5,304.6,519.2,304.6,513z"/>
					<path class="st4" d="M498.7,486.6c14.5,0,26.2,11.7,26.2,26.2c0,14.5-11.7,26.2-26.2,26.2s-26.2-11.7-26.2-26.2
						C472.4,498.5,484.2,486.6,498.7,486.6z M510.2,513c0-6.4-5.2-11.5-11.5-11.5s-11.5,5.2-11.5,11.5s5.1,11.5,11.5,11.5
						S510.2,519.2,510.2,513z"/>
					<path class="st2" d="M244.8,400.8v-119c0-20.7,17-37.7,37.7-37.7h204.6c20.7,0,37.7,17,37.7,37.7v76.8l-89.6,89.7H282.5
						c-20.7,0-37.7-17-37.7-37.7V400.8z"/>
					<path class="st5" d="M524.9,343.8v14.9l-89.7,89.6H282.5c-20.7,0-37.7-17-37.7-37.7v-14.9c0,20.7,17,37.7,37.7,37.7h152.6
						L524.9,343.8L524.9,343.8z"/>
				</g>
				<g>
					<path class="st6" d="M435.2,448.2H282.5c-20.7,0-37.7-17-37.7-37.7V281.6c0-20.7,17-37.7,37.7-37.7h204.6
						c20.7,0,37.7,17,37.7,37.7v76.8"/>
					<line class="st6" x1="524.9" y1="358.5" x2="435.2" y2="448.2"/>
					<path class="st6" d="M269.1,502.2c4.1-9.2,13.3-15.6,24-15.6c14.5,0,26.2,11.7,26.2,26.2c0,14.5-11.7,26.2-26.2,26.2
						s-26.2-11.7-26.2-26.2C266.9,509.1,267.7,505.6,269.1,502.2z"/>
					<path class="st6" d="M498.7,486.6c14.5,0,26.2,11.7,26.2,26.2c0,14.5-11.7,26.2-26.2,26.2s-26.2-11.7-26.2-26.2
						C472.4,498.5,484.2,486.6,498.7,486.6z"/>
					<path class="st6" d="M498.7,501.5c6.4,0,11.5,5.2,11.5,11.5s-5.2,11.5-11.5,11.5s-11.5-5.1-11.5-11.5
						C487.1,506.6,492.3,501.5,498.7,501.5z"/>
					<path class="st6" d="M293.1,501.5c6.4,0,11.5,5.2,11.5,11.5s-5.1,11.5-11.5,11.5c-6.4,0-11.5-5.1-11.5-11.5
						C281.6,506.6,286.8,501.5,293.1,501.5z"/>
					<g>
						<path class="st7" d="M293.1,445c-19.6,0-35.6,16-35.6,35.6c0,8.8,3.3,17.3,9.2,23.9c0.1,0.1,0.1,0.1,0.2,0.2l0,0
							c0.6,0.6,1.5,0.9,2.3,0.9c0.9,0,1.8-0.3,2.4-1c1.2-1.3,1.2-3.3,0-4.5c-4.8-5.3-7.5-12.2-7.5-19.4c0-16,13-29,29-29
							c1.8,0,3.3-1.5,3.3-3.3C296.4,446.5,295,445,293.1,445L293.1,445z"/>
						<path class="st7" d="M472.4,509.6H319.3c-1.8,0-3.3,1.5-3.3,3.3c0,1.8,1.5,3.3,3.3,3.3h153.1c1.8,0,3.3-1.5,3.3-3.3
							C475.7,511,474.3,509.6,472.4,509.6z"/>
						<path class="st7" d="M241.5,291.6c0,1.8,1.5,3.3,3.3,3.3s3.3-1.5,3.3-3.3v-89c0-17.3-14.1-31.4-31.4-31.4
							c-17.3,0-31.4,14.1-31.4,31.4c0,1.8,1.5,3.3,3.3,3.3s3.3-1.5,3.3-3.3c0-13.7,11.1-24.8,24.8-24.8s24.8,11.1,24.8,24.8V291.6
							L241.5,291.6z"/>
						<path class="st8" d="M241.5,291.6c0,1.8,1.5,3.3,3.3,3.3H480c1.8,0,3.3-1.5,3.3-3.3s-1.5-3.3-3.3-3.3H244.8
							C243,288.3,241.5,289.8,241.5,291.6z"/>
						<path class="st8" d="M480,324.8H244.8c-1.8,0-3.3,1.5-3.3,3.3c0,1.8,1.5,3.3,3.3,3.3H480c1.8,0,3.3-1.5,3.3-3.3
							C483.3,326.2,481.8,324.8,480,324.8z"/>
						<path class="st8" d="M480,361H244.8c-1.8,0-3.3,1.5-3.3,3.3s1.5,3.3,3.3,3.3H480c1.8,0,3.3-1.5,3.3-3.3S481.8,361,480,361z"/>
						<path class="st8" d="M446.9,400.8c0-1.8-1.5-3.3-3.3-3.3H244.8c-1.8,0-3.3,1.5-3.3,3.3s1.5,3.3,3.3,3.3h198.8
							C445.4,404,446.9,402.5,446.9,400.8L446.9,400.8z"/>
					</g>
				</g>
			</g>
		</g>
	</g>
</g>
</svg>
